PathFileType	4	(X/Y/Z)	HSS_squat2.trc
DataRate	CameraRate	NumFrames	NumMarkers	Units	OrigDataRate	OrigDataStartFrame	OrigNumFrames
120.0	120.0	8	44	mm	120.0	849	970
Frame#	Time		R.Shoulder		Offset		L.Shoulder		R.Elbow		R.Wrist.Radial		R.Wrist		R.Hand		L.Elbow		L.Wrist.Radial		L.Wrist		L.Hand		R.Hip		V.Sacral		L.PSIS		L.Hip		R.Thigh.Upper		R.Thigh.Front		R.Thigh.Rear		X.Shell.Lower.Thigh.Right		R.Knee.Lateral		R.Shank.Upper		R.Shank.Front		R.Shank.Rear		X.Shell.Lower.Shank.Right		R.Ankle.Lateral		R.Heel		R.Toe		L.Thigh.Upper		L.Thigh.Front		L.Thigh.Rear		X.Shell.Lower.Thigh.Left		L.Knee.Lateral		L.Shank.Upper		L.Shank.Front		L.Shank.Rear		X.Shell.Lower.Shank.Left		L.Ankle.Lateral		L.Heel		L.Toe		R.Troc		L.Troc		R.PSIS		L.ASIS		R.ASIS
			X1	Y1	Z1	X2	Y2	Z2	X3	Y3	Z3	X4	Y4	Z4	X5	Y5	Z5	X6	Y6	Z6	X7	Y7	Z7	X8	Y8	Z8	X9	Y9	Z9	X10	Y10	Z10	X11	Y11	Z11	X12	Y12	Z12	X13	Y13	Z13	X14	Y14	Z14	X15	Y15	Z15	X16	Y16	Z16	X17	Y17	Z17	X18	Y18	Z18	X19	Y19	Z19	X20	Y20	Z20	X21	Y21	Z21	X22	Y22	Z22	X23	Y23	Z23	X24	Y24	Z24	X25	Y25	Z25	X26	Y26	Z26	X27	Y27	Z27	X28	Y28	Z28	X29	Y29	Z29	X30	Y30	Z30	X31	Y31	Z31	X32	Y32	Z32	X33	Y33	Z33	X34	Y34	Z34	X35	Y35	Z35	X36	Y36	Z36	X37	Y37	Z37	X38	Y38	Z38	X39	Y39	Z39	X40	Y40	Z40	X41	Y41	Z41	X42	Y42	Z42	X43	Y43	Z43	X44	Y44	Z44

849	7.06667	147.13338	1479.49084	-68.30341	-153.61360	1378.38831	31.15375	-221.52655	1491.53186	-94.07220	206.44370	1127.73376	-194.88170	49.12928	1087.57141	-401.03387	110.63973	1074.41187	-438.84079	40.97047	1070.81982	-493.40344	-276.85672	1145.49756	-227.63823	-159.37204	1080.77686	-446.79309	-99.65348	1080.08887	-407.44928	-81.35355	1065.28259	-487.78021	116.05229	1037.98572	-116.70368	-35.91076	1017.58643	-5.20787	-77.12626	1024.30005	-8.21909	-180.35046	1038.61609	-129.84456	179.65346	705.02161	-157.37395	171.97206	667.28870	-194.07210	188.77945	666.42609	-134.47159	179.00208	633.37030	-165.28526	166.29175	523.43549	-108.59496	226.65930	379.39914	-95.51926	209.08904	334.30322	-124.79382	216.81165	341.46033	-64.38673	213.69328	301.05594	-88.52238	190.41583	72.31119	-82.60976	142.24561	33.08847	-41.58884	202.12323	32.07978	-236.89603	-227.59662	703.53821	-186.34674	-210.31201	653.33881	-209.02119	-243.38696	667.20074	-157.50859	-235.37335	633.11273	-185.38136	-220.30283	513.09479	-125.33625	-275.48981	314.90842	-94.50906	-259.78174	289.29932	-121.30692	-266.43317	275.51880	-63.20208	-270.34467	244.66908	-86.33305	-242.00395	75.30247	-97.29004	-196.94447	34.41424	-41.42694	-241.66841	33.77666	-239.66595	152.54015	903.22400	-128.54178	-218.48758	912.48346	-135.38127	7.75484	1020.51099	-4.14642	-136.19774	1007.57794	-193.72115	88.22737	1004.29932	-178.32477
850	7.07500	147.48311	1479.24182	-68.25208	-153.29536	1378.13513	30.74715	-221.23087	1491.52344	-94.38902	206.26764	1126.60107	-192.94359	49.32765	1085.27393	-399.13071	110.81312	1071.81909	-436.63559	41.27826	1068.04773	-491.27420	-275.99722	1144.15039	-225.19063	-159.27852	1077.87695	-444.29297	-99.52364	1077.85437	-405.11871	-81.42380	1062.46082	-485.54529	116.38765	1037.93384	-117.56700	-35.52812	1017.44122	-6.15315	-76.80085	1024.21362	-9.04380	-180.04436	1038.65747	-130.58769	179.75066	704.92316	-157.80440	171.88158	667.02728	-194.29243	188.89241	666.39368	-134.70166	178.97218	633.20135	-165.34827	166.51854	523.48749	-108.00919	226.88554	379.52927	-94.71647	209.35309	334.37070	-124.02660	216.88231	341.40228	-63.57048	213.90691	301.10703	-87.82331	190.40129	72.30329	-82.52367	142.24150	33.06466	-41.59505	202.14687	32.06899	-236.92410	-227.51134	703.52625	-186.41240	-210.55475	653.39746	-209.33595	-243.25261	667.25830	-157.48012	-235.42519	633.13464	-185.52136	-220.24117	513.15924	-124.85979	-275.44312	314.96655	-93.98779	-259.83643	289.35596	-120.88054	-266.34769	275.60349	-62.71772	-270.34799	244.68413	-85.92667	-242.01024	75.31200	-97.19968	-196.95374	34.41401	-41.42392	-241.69199	33.70591	-239.68665	152.83690	903.17926	-129.61357	-218.12256	912.58978	-136.02335	7.99925	1020.36755	-4.84905	-136.23589	1007.44220	-194.53929	88.37357	1004.28479	-179.15364
851	7.08333	147.82346	1478.96899	-68.19293	-153.08109	1377.94116	30.44264	-221.01619	1491.49951	-94.63711	206.25497	1125.58057	-191.29910	49.60977	1083.18567	-397.02817	111.05947	1069.32007	-434.41357	41.58526	1065.31995	-489.24384	-275.13312	1142.79028	-222.70822	-159.06268	1075.06982	-441.64517	-99.07249	1075.72266	-402.88788	-81.40814	1059.73523	-483.26331	116.85344	1037.95154	-118.43066	-35.16921	1017.41669	-6.92599	-76.48034	1024.10339	-9.72347	-179.79929	1038.62158	-131.20724	179.76479	704.81879	-158.24174	171.69548	666.76337	-194.51256	188.99837	666.35278	-134.96971	178.93547	633.02972	-165.42427	166.68410	523.53137	-107.42042	227.04001	379.60513	-93.80228	209.56326	334.46671	-123.33104	217.03304	341.47183	-62.84414	214.06693	301.09650	-87.14323	190.37524	72.29801	-82.47981	142.23581	33.07741	-41.59853	202.14250	32.02611	-236.92584	-227.44360	703.50311	-186.56262	-210.48096	653.29340	-209.37738	-243.14314	667.27954	-157.50653	-235.34407	633.10529	-185.48257	-220.19449	513.19446	-124.50459	-275.41525	315.02594	-93.55898	-259.91736	289.40359	-120.48378	-266.20370	275.66476	-62.23527	-270.32907	244.75179	-85.50226	-241.94176	75.33485	-97.15565	-196.92383	34.42222	-41.45517	-241.67773	33.61224	-239.72968	153.00549	903.14368	-130.44043	-217.90625	912.62714	-136.52213	8.54542	1020.28418	-5.82278	-135.65984	1007.74664	-195.17589	88.61506	1004.23553	-180.13182
852	7.09167	148.22017	1478.72742	-68.12968	-152.71947	1377.76355	30.12576	-220.81628	1491.47180	-94.86548	206.25050	1124.44299	-189.42261	49.90778	1081.13562	-394.98163	111.24575	1066.87329	-432.36472	41.87749	1062.56970	-487.11368	-274.27582	1141.51733	-220.37276	-158.89104	1072.36060	-438.96375	-98.68745	1073.55469	-400.46902	-81.28891	1057.03320	-480.84167	117.01923	1037.87756	-119.31113	-34.81124	1017.38617	-7.89662	-76.13246	1024.10168	-10.41931	-179.58463	1038.59888	-131.70857	179.78004	704.67981	-158.68921	171.55153	666.49365	-194.65784	189.09225	666.28571	-135.26669	178.87157	632.86633	-165.52812	166.94031	523.57928	-106.79370	227.27696	379.67706	-92.95483	209.87511	334.61343	-122.62621	217.31178	341.45392	-62.18471	214.26595	301.13443	-86.52380	190.34438	72.28428	-82.40186	142.26704	33.07528	-41.57779	202.14676	32.00774	-236.96103	-227.35773	703.48004	-186.69170	-210.43205	653.21173	-209.43050	-243.05202	667.28729	-157.53606	-235.25705	633.08063	-185.49153	-220.15062	513.21185	-124.24856	-275.34598	315.11639	-93.08990	-260.00217	289.48645	-120.13438	-266.07181	275.72073	-61.84253	-270.29840	244.83672	-85.14773	-241.80264	75.33729	-97.13052	-196.93156	34.45392	-41.47809	-241.65399	33.51191	-239.83287	153.19157	903.06537	-131.32144	-217.68977	912.59424	-136.89354	8.93656	1020.09363	-6.48368	-135.59329	1007.64465	-195.80602	88.80824	1004.22241	-181.02107
853	7.10000	148.65388	1478.42444	-68.13200	-152.39412	1377.67957	29.80363	-220.59288	1491.41016	-95.16943	206.35297	1123.31262	-187.67065	49.97550	1078.97876	-393.28275	111.50200	1064.41443	-430.12671	42.09800	1059.85583	-485.09390	-273.58298	1140.29211	-218.12592	-158.53848	1069.59534	-436.44116	-98.36803	1071.20544	-398.00171	-81.22150	1054.42920	-478.44113	117.28277	1037.90613	-120.35500	-34.34347	1017.34204	-8.63297	-75.67737	1024.04346	-11.31149	-179.34679	1038.49146	-132.22231	179.85036	704.51801	-159.06760	171.45169	666.24487	-194.81734	189.13544	666.21265	-135.58299	178.76643	632.66553	-165.71486	167.17348	523.61865	-106.10118	227.45325	379.73819	-92.26604	210.08385	334.75372	-121.93118	217.50616	341.44830	-61.55343	214.52205	301.25314	-85.84495	190.32065	72.25832	-82.35375	142.24821	33.07678	-41.57497	202.12616	31.96634	-237.00871	-227.28873	703.43329	-186.88399	-210.39294	653.14191	-209.50398	-242.95709	667.29266	-157.60536	-235.17821	633.04120	-185.55318	-220.07700	513.25281	-124.06160	-275.33533	315.15448	-92.68753	-260.06848	289.55673	-119.87217	-265.93854	275.72150	-61.58960	-270.27051	244.86920	-84.87154	-241.68385	75.36579	-97.13023	-196.87009	34.50023	-41.54737	-241.58755	33.38446	-239.94579	153.29875	903.01239	-132.48602	-217.40796	912.58942	-137.38611	9.17918	1019.93097	-7.15466	-135.54874	1007.67627	-196.55356	88.93699	1004.18671	-182.02097
854	7.10833	148.98723	1478.17896	-68.24832	-152.08035	1377.56641	29.47159	-220.34962	1491.36377	-95.52495	206.39088	1122.25293	-185.77596	50.09752	1077.02576	-391.28952	111.82625	1061.95972	-428.08066	42.37821	1057.27759	-483.18082	-272.83621	1139.16553	-215.92404	-158.24692	1066.98450	-434.04245	-97.79980	1069.06531	-395.82977	-80.83299	1051.74890	-476.07877	117.40762	1037.86987	-121.29308	-33.95130	1017.33105	-9.46158	-75.46160	1024.03796	-12.03457	-179.11852	1038.39832	-132.74722	179.87726	704.37134	-159.44472	171.30046	665.87457	-195.02423	189.18799	666.10742	-135.97058	178.64882	632.47394	-165.88823	167.29045	523.66827	-105.52380	227.62076	379.81537	-91.77334	210.28107	334.84378	-121.34618	217.70750	341.53754	-60.83754	214.84978	301.33832	-85.17016	190.28787	72.24167	-82.30366	142.25447	33.07768	-41.59659	202.09355	31.91267	-237.05174	-227.17575	703.37756	-187.10556	-210.37358	653.05902	-209.58119	-242.82922	667.27618	-157.74080	-235.11040	632.96283	-185.58267	-219.99309	513.27130	-123.93009	-275.33331	315.18918	-92.26919	-260.15094	289.61472	-119.57368	-265.75241	275.69095	-61.29915	-270.19440	244.89851	-84.57674	-241.55389	75.35529	-97.13007	-196.83936	34.54561	-41.57779	-241.51218	33.22491	-240.09810	153.52139	902.98395	-133.36832	-217.13089	912.56689	-137.88057	9.55863	1019.87006	-8.16420	-135.44479	1007.64075	-197.25294	89.10323	1004.07886	-182.70811
855	7.11667	149.34418	1477.92188	-68.34825	-151.77066	1377.48938	29.19465	-220.07245	1491.27942	-95.84480	206.32683	1121.18030	-183.89296	50.57264	1074.98450	-389.25418	112.04729	1059.69128	-425.99991	42.72690	1054.78003	-481.00494	-272.22107	1138.11194	-213.85536	-157.83679	1064.35352	-431.49506	-97.37884	1067.13464	-393.56412	-80.66391	1049.12280	-473.79117	117.71391	1037.78540	-122.20178	-33.78854	1017.19965	-10.14486	-75.12478	1023.96130	-12.85447	-178.86494	1038.25806	-133.31963	179.85278	704.20734	-159.86101	171.04718	665.48199	-195.29712	189.20459	665.96283	-136.30856	178.52997	632.26685	-166.05446	167.33537	523.69934	-105.23388	227.78836	379.89532	-91.23578	210.41435	334.97809	-120.83569	217.87880	341.54044	-60.27396	215.05374	301.34155	-84.70940	190.25989	72.21149	-82.27439	142.25612	33.08093	-41.61758	202.09886	31.87541	-237.07307	-227.09212	703.31659	-187.29515	-210.35020	652.95032	-209.64775	-242.70561	667.25714	-157.87215	-235.05573	632.89270	-185.61484	-219.88756	513.29895	-123.75211	-275.26605	315.19580	-91.94135	-260.17294	289.67581	-119.24648	-265.51938	275.66452	-60.99080	-270.05954	244.93303	-84.26167	-241.44412	75.34657	-97.14611	-196.77812	34.60694	-41.61310	-241.43268	33.11671	-240.24530	153.70844	902.93683	-134.17651	-216.85152	912.58441	-138.27687	9.82469	1019.77148	-8.80012	-135.22469	1007.60144	-197.88454	89.20504	1003.95898	-183.66196
856	7.12500	149.78914	1477.63342	-68.38139	-151.30550	1377.39001	28.92090	-219.80360	1491.19568	-96.14374	206.42432	1120.18164	-182.18819	50.79560	1073.02051	-387.47696	112.38692	1057.44153	-424.05475	42.94053	1052.25000	-479.11411	-271.52744	1137.09180	-211.77686	-157.42737	1061.94421	-429.04337	-96.96883	1065.10034	-391.14774	-80.33364	1046.55298	-471.34738	118.86644	1038.39099	-122.60394	-33.45395	1017.17865	-11.32157	-74.88688	1023.83099	-13.54382	-178.66476	1038.16077	-133.95883	178.98816	703.62793	-160.56311	170.77667	665.19940	-195.58527	189.21051	665.84271	-136.57228	178.39113	632.10162	-166.19374	167.44258	523.71063	-104.93276	228.00456	380.00647	-90.55917	210.54489	335.06622	-120.29987	218.09967	341.56882	-59.82102	215.17963	301.36896	-84.32332	190.23628	72.18945	-82.26054	142.25662	33.09060	-41.58317	202.06511	31.84901	-237.12344	-227.00847	703.23895	-187.50769	-210.27705	652.81848	-209.68916	-242.57413	667.24335	-157.97566	-234.94450	632.82013	-185.67157	-219.74933	513.29980	-123.60600	-275.17892	315.19589	-91.62309	-260.17062	289.72418	-118.93547	-265.34409	275.69000	-60.44629	-269.92804	244.92978	-83.98695	-241.29416	75.34296	-97.18441	-196.69487	34.65232	-41.68806	-241.37172	33.03319	-240.31155	153.93698	902.78949	-135.09863	-216.66229	912.66583	-138.66382	10.18129	1019.70551	-9.49760	-135.06947	1007.54504	-198.38477	89.45345	1003.90411	-184.47130
